<?xml version="1.0" encoding="utf-8"?>
<!-- Generator: Adobe Illustrator 16.0.3, SVG Export Plug-In . SVG Version: 6.00 Build 0)  -->
<!DOCTYPE svg PUBLIC "-//W3C//DTD SVG 1.1//EN" "http://www.w3.org/Graphics/SVG/1.1/DTD/svg11.dtd">
<svg version="1.1" id="圖層_3" xmlns="http://www.w3.org/2000/svg" xmlns:xlink="http://www.w3.org/1999/xlink" x="0px" y="0px"
	 width="595.281px" height="841.891px" viewBox="0 0 595.281 841.891" enable-background="new 0 0 595.281 841.891"
	 xml:space="preserve">
<g>
	<path fill="#F7E9E9" d="M532.437,384.414c-8.152-0.797-13.359,3.772-17.069,10.432c-3.689,6.626-4.828,14.035-6.188,21.348
		c-0.979,5.266-1.677,10.582-2.911,15.879c-0.521-3.066-1.071-6.131-1.558-9.205c-1.682-10.639-8.195-17.092-17.843-21.016
		c-4.271-1.737-8.757-2.408-13.196-3.359c-1.763-0.379-3.471-0.88-5.098-1.664c-3.346-1.613-5.075-4.167-5.287-7.971
		c-0.331-5.9,1.774-11.25,3.319-16.747c1.228-4.377,2.498-8.748,2.414-13.358c-0.692,0-1.385,0-2.077,0
		c-1.69,1.401-3.573,2.582-4.965,4.332c-0.248,0.311-0.584,0.689-1.037,0.552c-0.603-0.181-0.505-0.77-0.488-1.228
		c0.044-1.259-0.225-2.463-0.569-3.658c-0.415,0-0.829,0-1.245,0c-0.431,0.786-0.853,1.575-1.292,2.356
		c-2.187,3.903-2.46,3.878-6.861,2.931c-5.216-1.125-10.289-0.432-15.063,2.052c-1.23,0.641-1.893,1.685-2.279,3.04
		c-0.85,2.946-0.121,5.762,0.566,8.561c0.932,3.792,3.896,6.289,6.194,9.19c1.827,2.308,2.499,4.688,1.367,7.505
		c-1.534,3.816-2.328,7.772-2.323,11.914c0.005,2.887-3.656,7.059-6.526,7.641c-3.344,0.676-6.521,1.811-9.531,3.381
		c-4.235,2.211-8.358,4.826-9.823,9.591c-0.968,3.144-2.835,2.798-5.059,2.64c-2.069-0.151-4.139-0.323-6.211-0.387
		c-1.177-0.036-2.333,0.34-2.431,1.721c-0.093,1.333,0.919,1.901,2.106,2.136c0.269,0.053,0.551,0.059,0.826,0.065
		c2.904,0.061,5.782,0.592,8.699,0.419c0.613-0.035,1.183,0.097,1.779,0.391c3.15,1.557,5.199,1.146,6.787-1.891
		c0.8-1.527,1.453-3.134,2.235-4.671c0.623-1.225,1.591-2.2,2.983-2.352c5.353-0.578,10.651-1.428,15.916-2.523
		c1.798-0.375,2.848,0.373,3.408,2.123c0.932,2.918,1.401,5.91,1.494,8.943c0.244,8-1.557,15.751-2.976,23.547
		c-1.049,5.754,3.214,9.754,8.953,8.284c7.715-1.978,15.485-1.246,23.259-0.788c4.764,0.281,9.51,0.312,14.279-0.052
		c2.776-0.214,5.325-1.433,8.131-1.424c4.979,0.013,8.917-2.215,11.941-6.045c3.016-3.819,4.59-8.311,5.641-13.005
		c2.127-9.519,2.423-19.274,3.739-28.901c0.749-5.478,1.628-10.922,3.93-16.019c2.09-4.629,5.737-6.912,10.146-6.118
		c3.118,0.562,5.499,2.507,7.625,4.733c3.144,3.293,5.562,2.93,7.632-1.201c0-0.692,0-1.383,0-2.075
		C544.498,388.423,539.205,385.074,532.437,384.414z M461.708,453.332c-2.402,0.521-4.332,2.052-6.358,3.353
		c-1.899,1.217-3.78,2.472-6.588,2.593c4.785-6.894,4.795-14.743,6.162-22.335c0.896,4.072,2.881,7.572,4.992,11.018
		c0.723,1.178,1.446,2.331,2.369,3.378C463.012,452.164,463.368,452.972,461.708,453.332z"/>
	<path fill="#F7E9E9" d="M85.109,400.575c-1.84,0.028-3.338,0.923-4.929,1.581c-2.877,1.186-4.87,0.342-6.302-2.355
		c-1.189-2.244-2.354-4.529-3.844-6.561c-1.437-1.967-3.482-3.092-5.938-1.605c-2.551,1.541-3.3,3.812-2.058,6.548
		c0.829,1.825,1.971,3.513,2.753,5.353c0.648,1.526,2.698,3.377-0.093,4.717c-2.456,1.18-4.271,0.331-5.499-2.248
		c-1.14-2.397-2.641-4.633-4.044-6.902c-1.638-2.652-3.871-4.43-6.98-2.66c-3.13,1.783-2.622,4.642-1.265,7.39
		c1.065,2.159,2.194,4.296,3.375,6.394c0.958,1.701,0.601,2.796-1.284,3.338c-2.824,0.81-5.71,1.448-8.473,2.433
		c-3.236,1.157-4.373,5.045-2.327,7.517c1.822,2.203,4.292,2.057,6.665,1.378c6.427-1.833,12.881-3.615,19.182-5.827
		c3.034-1.064,4.903-0.747,6.729,1.98c1.959,2.93,3.312,6.094,4.729,9.267c1.162,2.605,1.326,4.321-2.391,4.152
		c-1.767-0.081-2.757,1.364-3.732,2.701c-3.372,4.635-7.583,8.278-12.904,10.528c-2.336,0.987-4.723,1.86-7.076,2.813
		c-3.062,1.241-4.97,3.221-4.016,6.802c0.985,3.686,3.933,3.616,6.794,3.171c1.691-0.258,3.328-1,4.932-1.665
		c8.032-3.323,15.141-7.933,20.986-16.049c0.562,5.566,0.506,9.911-0.844,14.169c-1.513,4.773-2.526,5.199-7.083,3.287
		c-2.405-1.012-5.051-1.982-6.746,0.958c-1.651,2.864-0.807,5.528,1.846,7.382c4.969,3.47,12.849,5.217,17.912-1.465
		c2.931-3.863,4.707-8.141,5.229-12.853c1.516-13.633-1.401-26.319-8.785-37.9c-1.249-1.956-0.712-2.786,1.155-3.576
		c2.46-1.043,4.927-2.112,7.267-3.398c2.424-1.326,2.562-3.674,1.844-5.983C89.197,401.143,87.338,400.543,85.109,400.575z"/>
	<path fill="#F7E9E9" d="M99.305,387.064c-1.06-0.132-2.14-0.112-3.209-0.156c-0.403-0.018-0.807-0.015-1.206-0.063
		c0.398,0.048,0.802,0.045,1.206,0.066C97.165,386.952,98.246,386.933,99.305,387.064z"/>
	<path fill="#F7E9E9" d="M150.335,389.751c-2.523-0.245-5.101-0.367-7.622-0.149c-3.719,0.318-5.906-0.739-6.039-4.867
		c-0.084-2.701-1.76-4.045-4.503-4.051c-3.416-0.006-4.039,2.411-4.545,5.029c-0.282,1.463,0.115,3.625-2.321,3.493
		c-2.794-0.151-5.758-0.133-8.296-1.104c-2.154-0.827-1.559-3.715-2.057-5.737c-0.126-0.513-0.27-1.057-0.55-1.494
		c-1.184-1.854-2.922-2.83-5.095-2.449c-2.036,0.354-3.206,1.764-3.589,3.831c-1.021,5.506-1.034,5.485-6.412,4.81
		c-1.06-0.132-2.14-0.11-3.211-0.152c-0.402-0.021-0.806-0.018-1.205-0.066c-2.974-0.353-5.475,0.197-6.022,3.67
		c-0.563,3.582,1.044,5.44,4.689,6.055c2.269,0.383,4.511,0.482,6.778,0.585c3.809,0.179,6.625,1.304,6.891,5.878
		c0.195,3.326,2.005,5.62,5.725,5.255c3.796-0.374,4.726-2.95,4.398-6.331c-0.098-1-0.771-2.408,0.532-2.881
		c2.617-0.949,5.264,0.317,7.893,0.495c1.517,0.104,0.875,2.245,0.996,3.503c0.394,4.092,2.732,6.098,5.921,4.96
		c2.416-0.861,3.691-2.723,3.759-5.199c0.075-2.819,1.458-3.692,4.081-3.601c3.344,0.119,6.691-0.002,10.004-0.659
		c2.662-0.53,4.007-2.177,3.975-4.759C154.477,391.234,152.674,389.979,150.335,389.751z"/>
	<path fill="#F7E9E9" d="M261.312,417.246c-1.346-0.093-2.697-0.039-4.045-0.093c-7.62-0.315-7.807-0.481-9.36-7.87
		c-0.122-0.585-0.167-1.209-0.406-1.745c-0.829-1.874-2.389-2.687-4.354-2.446c-1.792,0.222-3.099,1.314-3.343,3.146
		c-0.174,1.309-0.096,2.71,0.175,4.004c0.523,2.504-0.562,3.347-2.862,3.16c-1.193-0.097-2.385-0.389-3.57-0.353
		c-2.206,0.058-3.713,1.187-4.077,3.427c-0.353,2.17,0.917,3.398,2.826,3.967c1.718,0.512,3.474,0.957,5.245,1.215
		c5.373,0.773,5.766,1.238,4.272,6.537c-2.306,8.184-5.578,15.814-12.386,21.438c-1.729,1.428-2.797,3.354-1.086,5.479
		c1.553,1.927,3.662,1.927,5.688,0.796c1.158-0.645,2.249-1.511,3.169-2.469c1.968-2.047,3.815-4.21,5.695-6.343
		c1.297-1.475,2.935-2.727,4.525-0.941c1.572,1.766,1.959,4.085-0.231,5.938c-0.671,0.567-1.676,0.75-2.326,1.332
		c-2.079,1.866-2.104,3.923-0.025,5.77c2.362,2.097,7.164,1.851,9.56-0.336c3.437-3.137,3.584-16.719,0.157-19.831
		c-0.632-0.574-1.526-1.136-2.337-1.194c-3.782-0.279-3.997-2.284-2.853-5.229c0.487-1.248,0.861-2.591,0.978-3.917
		c0.387-4.389,2.18-6.821,7.018-5.306c1.476-0.107,3.003-0.029,4.43-0.371c2.118-0.505,4.115-1.453,3.891-4.145
		C265.468,418.287,263.61,417.403,261.312,417.246z"/>
	<path fill="#F7E9E9" d="M417.613,426.949c-1.55-0.438-3.261-0.675-4.857-0.527c-8.52,0.797-17.022,0.431-25.533-0.104
		c-0.896-0.043-1.798-0.043-2.688-0.133c-2.934-0.299-5.733,0.039-6.036,3.615c-0.302,3.54,2.39,4.449,5.318,4.688
		c4.022,0.325,8.047,0.696,12.08,0.859c2.362,0.102,3.591,0.985,3.687,3.45c0.154,3.89,0.258,7.792,0.758,11.644
		c0.305,2.396,0.039,3.979-2.383,5.053c-1.967,0.875-2.865,2.668-2.156,4.852c0.671,2.064,2.275,3.063,4.403,3.269
		c5.319,0.518,9.097-2.654,9.173-8.006c0.053-3.885-0.183-7.781-0.438-11.665c-0.484-7.346-0.522-7.34,6.78-9.064
		c0.727-0.173,1.479-0.327,2.146-0.646c1.645-0.786,2.472-2.165,2.376-3.979C420.153,428.585,419.113,427.37,417.613,426.949z"/>
	<path fill="#F7E9E9" d="M285.124,464.21c-3.076-0.071-3.722-1.691-3.565-4.387c0.302-5.226,0.581-10.467-0.167-15.683
		c-0.359-2.496,0.821-3.873,2.971-4.895c3.521-1.67,6.935-3.525,9.869-6.176c2.229-2.01,4.56-4.186,2.011-7.145
		c-2.413-2.802-4.894-0.854-7.029,0.922c-3.154,2.62-6.598,4.762-10.633,5.571c-5.866,1.172-6.997,2.442-6.262,8.342
		c1.076,8.664,0.879,17.338,0.265,26.011c-0.358,5.038,0.872,6.479,7.29,6.41c0.955-0.155,3.174-0.485,5.382-0.875
		c2.327-0.414,3.907-1.704,3.901-4.185C289.151,465.582,287.508,464.267,285.124,464.21z"/>
	<path fill="#F7E9E9" d="M367.249,418.873c-2.124-0.834-3.858,0.232-5.098,1.855c-4.293,5.604-10.021,9.345-16.032,12.772
		c-2.796,1.589-7.486,2.216-5.287,7.098c2.07,4.6,5.671,1.808,8.481,0.715c3.049-1.184,3.694-0.021,3.83,2.684
		c0.143,2.831,0.472,5.659,0.882,8.466c0.393,2.673,1.385,5.277,4.654,4.92s3.677-3.131,3.525-5.82
		c-0.242-4.327-0.35-8.692-1.028-12.964c-0.563-3.553,0.557-5.897,3.133-8.238c2.264-2.053,4.788-4.165,5.369-7.409
		C369.658,421.02,368.93,419.533,367.249,418.873z"/>
	<path fill="#F7E9E9" d="M42.233,393c1.166,0.273,2.389,0.292,3.721,0.439c6.868,0.094,19.531-4.034,25.113-8.275
		c2.043-1.557,3.607-3.422,2.172-6.15c-1.538-2.931-4.282-3.484-6.875-2.105c-7.455,3.961-15.122,6.673-23.732,6.383
		c-2.713-0.091-4.41,1.695-4.514,4.624C38.015,390.813,39.586,392.383,42.233,393z"/>
	<path fill="#F7E9E9" d="M274.818,415.754c1.869-0.428,3.268-1.627,4.136-3.22c1.385-2.542,3.296-2.876,5.996-2.493
		c4.727,0.669,9.519,0.885,14.287,1.293c0.005-0.053,0.011-0.107,0.017-0.161c1.645,0,3.29,0.025,4.937-0.009
		c2.512-0.049,5.094-0.31,5.131-3.603c0.039-3.37-2.435-3.989-5.228-4.167c-5.365-0.342-10.726-0.852-16.088-1.21
		c-2.897-0.192-4.353-1.422-4.109-4.525c0.156-2.009-0.243-4.015-2.728-4.481c-2.713-0.508-4.363,1.102-5.147,3.346
		c-1.672,4.789-2.885,9.737-5.795,14.033c-0.892,1.317-0.752,2.922,0.436,4.148C271.797,415.881,273.268,416.109,274.818,415.754z"
		/>
	<path fill="#F7E9E9" d="M48.812,442.658c7.44-2.323,13.864-6.26,18.693-12.51c0.897-1.163,1.773-2.377,1.692-3.626
		c0.017-2.769-1.135-4.428-3.32-5.347c-2.369-0.998-4.218,0.01-5.63,1.824c-3.114,4.004-6.885,7.062-11.707,8.764
		c-1.256,0.442-2.569,0.843-3.694,1.527c-2.486,1.517-3.418,3.872-2.337,6.556C43.623,442.609,46.059,443.517,48.812,442.658z"/>
	<path fill="#F7E9E9" d="M307.941,463.958c-5.496-1.586-5.47-1.663-1.776-6.31c0.372-0.466,0.749-0.937,1.046-1.453
		c1.354-2.354,2.3-4.958-0.436-6.757c-2.609-1.72-4.822-0.354-6.425,2.059c-0.331,0.495-0.689,0.977-1.061,1.447
		c-1.722,2.191-3.356,3.918-5.938,0.738c-1.347-1.657-3.458-1.77-5.302-0.521c-1.97,1.329-1.829,3.305-1.119,5.23
		c2.28,6.184,13.3,13.815,20.196,13.811c1.965-0.234,4.423-0.771,4.902-3.326C312.568,466.034,310.554,464.709,307.941,463.958z"/>
	<path fill="#F7E9E9" d="M345.663,420.352c4.448,0.135,15.089-7.666,16.24-11.805c0.609-2.194,0.344-4.262-1.723-5.546
		c-2.051-1.274-3.824-0.173-5.152,1.335c-3.206,3.637-6.808,6.673-11.284,8.645c-1.776,0.785-2.959,2.262-2.406,4.301
		C341.927,419.439,343.824,420.086,345.663,420.352z"/>
	<path fill="#F7E9E9" d="M388.843,414.063c3.2,3.093,16.323,4.478,19.956,2.189c1.929-1.215,3.123-2.923,2.457-5.264
		c-0.661-2.32-2.715-2.699-4.712-2.479c-4.815,0.537-9.525,0.361-14.163-1.189c-1.844-0.615-3.711-0.317-4.674,1.564
		C386.69,410.875,387.66,412.63,388.843,414.063z"/>
	<path fill="#F7E9E9" d="M191.769,425.639c-3.594,0.045-7.435,3.702-7.474,7.107c-0.045,3.804,3.623,7.512,7.468,7.551
		c3.76,0.043,7.431-3.424,7.397-6.987C199.12,429.446,195.407,425.592,191.769,425.639z"/>
	<path fill="none" d="M117.715,435.955c-1.204-0.007-2.409,0-3.614,0c-3.093,0.032-4.898-0.185-5.818-0.978
		c0.92,0.793,2.726,1.01,5.82,0.978c1.204,0,2.408-0.006,3.614,0c1.605,0.011,3.244-0.335,3.056-2.273
		c-0.13-1.339,0.067-3.093-0.731-4.185c0.798,1.092,0.601,2.846,0.731,4.185C120.958,435.62,119.321,435.964,117.715,435.955z"/>
	<path fill="none" d="M108.196,434.883c-0.075-0.072-0.152-0.146-0.215-0.23C108.043,434.736,108.12,434.811,108.196,434.883z"/>
	<path fill="none" d="M119.8,429.215c0.018,0.017,0.03,0.034,0.045,0.053C119.83,429.249,119.818,429.231,119.8,429.215z"/>
	<path fill="none" d="M117.965,446.849c-2.53,0.209-5.094,0.224-7.626,0.08c-3.079-0.176-3.454,1.831-3.71,4.089
		c-0.317,2.785,1.73,2.548,3.429,2.649c1.467,0.088,2.944,0.017,4.417,0.017c0,0.04,0,0.079,0,0.115
		c1.206,0,2.427,0.121,3.611-0.029c1.651-0.206,4.308,0.934,4.264-2.095C122.31,449.095,121.646,446.545,117.965,446.849z"/>
	<path fill="none" d="M138.143,426.877c-2.564,0.199-5.918-1.082-5.484,3.809c0.267,3.003,0.451,5.475,4.042,4.986
		c2.847-0.008,5.483,0.045,5.15-3.605C141.635,429.694,142.246,426.559,138.143,426.877z"/>
	<path fill="none" d="M138.143,445.666c-2.564,0.199-5.918-1.081-5.484,3.81c0.267,3.003,0.451,5.477,4.042,4.987
		c2.847-0.008,5.483,0.044,5.15-3.607C141.635,448.484,142.246,445.35,138.143,445.666z"/>
	<path fill="none" d="M141.851,432.066c-0.176-1.926,0.195-4.358-1.862-5.031c-0.475-0.155-1.078-0.217-1.847-0.158
		c-0.162,0.013-0.325,0.02-0.49,0.022c-0.289,0.004-0.584-0.003-0.88-0.011c-2.066-0.068-4.136-0.225-4.152,2.951
		c-0.001,0.261,0.011,0.542,0.038,0.846c0.034,0.378,0.066,0.745,0.104,1.098c0.262,2.477,0.796,4.318,3.939,3.889
		C139.548,435.664,142.184,435.717,141.851,432.066z"/>
	<path fill="none" d="M138.143,445.666c-2.564,0.199-5.918-1.081-5.484,3.81c0.267,3.003,0.451,5.477,4.042,4.987
		c2.847-0.008,5.483,0.044,5.15-3.607C141.635,448.484,142.246,445.35,138.143,445.666z"/>
	<path fill="none" d="M117.965,446.849c-2.53,0.209-5.094,0.224-7.626,0.08c-3.079-0.176-3.454,1.831-3.71,4.089
		c-0.317,2.785,1.73,2.548,3.429,2.649c1.467,0.088,2.944,0.017,4.417,0.017c0,0.04,0,0.079,0,0.115
		c1.206,0,2.427,0.121,3.611-0.029c1.651-0.206,4.308,0.934,4.264-2.095C122.31,449.095,121.646,446.545,117.965,446.849z"/>
	<path fill="none" d="M107.801,430.533c0.242-1.2,0.723-2.058,2.006-2.083c2.806-0.052,5.658-0.325,8.411,0.061
		c0.717,0.101,1.223,0.353,1.582,0.704c-0.359-0.354-0.865-0.604-1.583-0.704c-2.752-0.388-5.604-0.114-8.411-0.061
		c-1.283,0.023-1.763,0.883-2.006,2.081c-0.355,1.747-0.421,2.961-0.021,3.789C107.379,433.492,107.446,432.278,107.801,430.533z"/>
	<path fill="none" d="M117.715,435.955c-1.204-0.007-2.409,0-3.614,0c-3.093,0.032-4.898-0.185-5.818-0.978
		c0.92,0.793,2.726,1.01,5.82,0.978c1.204,0,2.408-0.006,3.614,0c1.605,0.011,3.244-0.335,3.056-2.273
		c-0.13-1.339,0.067-3.093-0.731-4.185c0.798,1.092,0.601,2.846,0.731,4.185C120.958,435.62,119.321,435.964,117.715,435.955z"/>
	<path fill="#F7E9E9" d="M153.33,454.5c-0.753-9.994-1.502-19.997-3.1-29.907c-0.723-4.479-2.936-6.633-7.524-6.846
		c-10.267-0.476-20.531-1.374-30.827-0.28c-2.992,0.317-5.957,0.568-8.944-1.131c-2.371-1.352-4.678,0.033-5.916,2.524
		c-0.913,1.839-0.922,3.859-0.971,5.882c-0.242,10.389-0.438,20.78-0.881,31.156c-0.228,5.355,1.806,8.219,7.104,8.459
		c5.876,0.264,11.772,0.122,17.337,0.879c8.701-0.475,17.113-0.879,25.518-1.409C151.349,463.436,153.805,460.796,153.33,454.5z
		 M107.8,430.531c0.243-1.198,0.724-2.058,2.006-2.081c2.806-0.054,5.659-0.327,8.411,0.061c0.718,0.101,1.224,0.351,1.583,0.704
		c0.018,0.017,0.03,0.034,0.045,0.053c0.07,0.073,0.138,0.146,0.197,0.229c0.798,1.092,0.601,2.846,0.731,4.185
		c0.188,1.938-1.451,2.284-3.056,2.273c-1.206-0.006-2.41,0-3.614,0c-3.094,0.032-4.9-0.185-5.82-0.978
		c-0.033-0.028-0.056-0.065-0.087-0.095c-0.075-0.072-0.152-0.146-0.215-0.23c-0.077-0.103-0.144-0.213-0.201-0.332
		C107.379,433.492,107.445,432.278,107.8,430.531z M118.085,453.77c-1.185,0.15-2.406,0.029-3.611,0.029c0-0.036,0-0.075,0-0.115
		c-1.473,0-2.95,0.071-4.417-0.017c-1.698-0.102-3.746,0.136-3.429-2.649c0.256-2.258,0.632-4.265,3.71-4.089
		c2.532,0.144,5.097,0.129,7.626-0.08c3.681-0.304,4.345,2.246,4.384,4.826C122.393,454.703,119.737,453.563,118.085,453.77z
		 M136.701,454.463c-3.591,0.489-3.776-1.984-4.042-4.987c-0.434-4.891,2.92-3.61,5.484-3.81c4.103-0.316,3.492,2.818,3.708,5.189
		C142.184,454.507,139.548,454.455,136.701,454.463z M136.701,435.672c-3.143,0.43-3.677-1.412-3.939-3.889
		c-0.037-0.353-0.069-0.72-0.104-1.098c-0.026-0.304-0.039-0.585-0.038-0.846c0.016-3.179,2.085-3.02,4.152-2.951
		c0.295,0.008,0.591,0.015,0.88,0.011c0.166-0.003,0.328-0.01,0.49-0.022c0.769-0.059,1.372,0.003,1.847,0.158
		c2.057,0.673,1.686,3.104,1.863,5.03C142.184,435.717,139.548,435.664,136.701,435.672z"/>
	<path fill="#F7E9E9" d="M139.99,427.035c2.057,0.673,1.686,3.105,1.862,5.031c0.333,3.65-2.304,3.598-5.15,3.605
		c2.847-0.008,5.483,0.045,5.152-3.606C141.676,430.139,142.046,427.708,139.99,427.035z"/>
	<path fill="#F7E9E9" d="M136.773,426.889c-2.066-0.068-4.136-0.228-4.152,2.951C132.637,426.664,134.706,426.82,136.773,426.889z"
		/>
	<path fill="#F7E9E9" d="M119.845,429.268c0.07,0.073,0.138,0.146,0.197,0.229C119.983,429.414,119.915,429.341,119.845,429.268z"/>
	<path fill="#F7E9E9" d="M108.283,434.978c-0.033-0.028-0.056-0.065-0.087-0.095C108.227,434.912,108.25,434.949,108.283,434.978z"
		/>
	<path fill="#F7E9E9" d="M107.801,430.533c0.242-1.2,0.723-2.058,2.006-2.083c2.806-0.052,5.658-0.325,8.411,0.061
		c0.717,0.101,1.223,0.353,1.582,0.704c-0.359-0.354-0.865-0.604-1.583-0.704c-2.752-0.388-5.604-0.114-8.411-0.061
		c-1.283,0.023-1.763,0.883-2.006,2.081c-0.406,1.995-0.434,3.294,0.18,4.121C107.366,433.825,107.395,432.526,107.801,430.533z"/>
</g>
</svg>
